<?xml version="1.0" standalone="no"?>
<!DOCTYPE svg PUBLIC "-//W3C//DTD SVG 20010904//EN"
 "http://www.w3.org/TR/2001/REC-SVG-20010904/DTD/svg10.dtd">
<svg version="1.0" xmlns="http://www.w3.org/2000/svg"
 width="401.000000pt" height="187.000000pt" viewBox="0 0 401.000000 187.000000"
 preserveAspectRatio="xMidYMid meet">

<g transform="translate(0.000000,187.000000) scale(0.100000,-0.100000)"
fill="#fff" stroke="none">
<path d="M1207 1815 c-3 -19 -26 -63 -51 -99 -25 -35 -46 -69 -46 -75 0 -16
-17 -14 -23 4 -8 19 -105 82 -141 91 -26 6 -28 5 -22 -12 5 -10 13 -47 19 -81
9 -51 8 -72 -6 -122 -34 -122 -13 -197 64 -229 32 -14 39 -21 33 -37 -29 -96
-53 -203 -59 -268 l-7 -78 -45 41 c-95 88 -277 146 -390 124 -39 -7 -49 -13
-51 -32 -6 -41 15 -54 73 -47 187 24 403 -129 450 -318 l7 -27 -492 -2 c-457
-3 -494 -4 -504 -21 -8 -12 -8 -22 0 -35 10 -16 48 -17 517 -20 l505 -2 42
-76 c22 -42 61 -103 85 -135 25 -33 45 -61 45 -64 0 -3 -269 -6 -597 -7 -590
-3 -598 -3 -601 -23 -6 -52 -31 -50 654 -53 l636 -2 62 -44 c84 -60 190 -112
283 -138 65 -18 98 -22 198 -19 150 3 210 3 355 0 82 -2 135 2 185 15 88 21
235 91 300 142 l50 39 628 5 c656 5 647 5 647 45 0 40 7 40 -594 43 l-575 2
55 77 c30 42 67 102 82 134 l27 59 494 2 c458 3 495 4 505 21 8 12 8 22 0 35
-10 16 -46 17 -489 20 l-477 2 6 28 c25 102 127 227 226 275 69 34 160 51 226
43 58 -7 78 6 72 45 -4 31 -46 41 -138 35 -122 -8 -229 -54 -312 -133 l-36
-35 -6 58 c-11 98 -26 176 -48 242 -11 35 -18 64 -17 65 2 1 22 11 44 23 70
37 92 114 60 218 -19 62 -19 110 0 171 8 27 12 51 10 53 -11 11 -97 -32 -139
-69 -25 -23 -46 -35 -46 -27 0 7 -21 40 -45 73 -27 35 -48 74 -51 97 -4 21
-10 38 -13 38 -16 0 -75 -68 -92 -105 -22 -48 -24 -89 -5 -143 l14 -40 -61 5
c-60 5 -147 -10 -147 -25 0 -4 22 -24 49 -44 40 -30 57 -54 95 -132 35 -70 55
-100 80 -115 36 -22 98 -27 139 -12 23 9 26 6 41 -33 46 -121 59 -313 30 -454
-31 -152 -104 -295 -206 -404 -64 -68 -65 -67 -33 42 11 38 15 85 13 150 -2
82 0 100 18 130 31 50 36 73 24 106 -16 41 -55 80 -126 125 -34 22 -81 60
-104 85 -23 25 -44 44 -46 41 -22 -22 -31 -236 -13 -302 15 -53 77 -115 115
-115 53 0 57 -9 52 -107 -3 -76 -9 -100 -40 -164 -66 -140 -183 -227 -335
-249 -45 -7 -87 -10 -94 -8 -6 2 18 23 53 46 114 74 254 243 283 340 8 29 -10
52 -41 52 -19 0 -30 -13 -58 -68 -64 -127 -159 -223 -287 -292 -90 -48 -89
-49 -89 93 l0 124 43 12 c106 32 192 112 226 214 16 47 21 86 21 175 0 105 -1
114 -17 107 -125 -52 -264 -80 -343 -69 -25 3 -71 18 -104 32 -61 27 -87 24
-94 -12 -9 -43 89 -92 206 -102 60 -5 175 10 250 32 20 6 22 3 22 -37 0 -226
-241 -351 -402 -209 -72 63 -85 105 -93 306 -6 146 -5 175 9 201 17 33 79 69
136 78 l35 6 -39 -15 c-128 -48 -151 -143 -47 -189 72 -33 212 -36 301 -7 94
30 154 82 154 133 0 104 -133 174 -313 165 -153 -8 -262 -58 -303 -139 -24
-47 -26 -335 -3 -424 31 -117 114 -208 221 -242 l54 -17 0 -123 c0 -83 -4
-123 -11 -123 -27 0 -153 76 -208 126 -61 56 -137 159 -164 227 -12 28 -22 37
-40 37 -38 0 -53 -25 -39 -62 39 -105 169 -259 279 -331 35 -23 59 -43 53 -45
-24 -8 -173 19 -212 39 -167 84 -258 227 -258 405 l0 74 41 6 c89 15 139 98
139 232 0 62 -18 192 -26 192 -2 0 -22 -20 -45 -44 -22 -25 -64 -59 -92 -77
-144 -90 -176 -161 -111 -246 15 -20 23 -41 20 -50 -16 -42 -7 -182 17 -252
13 -39 21 -71 17 -71 -13 0 -91 89 -139 159 -56 81 -105 199 -127 301 -27 130
-12 349 33 461 13 35 17 37 40 28 13 -5 44 -9 68 -9 62 0 105 40 156 146 32
68 49 91 89 121 28 21 50 40 50 44 0 15 -94 31 -149 26 l-59 -5 14 40 c18 52
18 90 -1 136 -15 34 -81 112 -96 112 -3 0 -9 -16 -12 -35z m984 -726 c57 -32
63 -61 17 -85 -29 -15 -31 -15 -20 -1 37 44 -39 96 -158 108 -74 7 -74 7 21 5
80 -3 104 -7 140 -27z m-77 -83 l50 -24 -40 -11 c-74 -21 -234 -7 -234 19 0 6
1 10 3 10 1 0 20 7 42 15 60 21 123 18 179 -9z"/>
</g>
</svg>
